<svg width="32" height="32" viewBox="0 0 32 32" fill="none" xmlns="http://www.w3.org/2000/svg">
<g clip-path="url(#clip0_531_1100)">
<path d="M15.9998 32C24.822 32 31.9994 24.8223 31.9994 15.9999C31.9994 7.17766 24.822 0 15.9998 0C7.17752 0 0 7.17766 0 15.9999C0 24.8223 7.17752 32 15.9998 32ZM15.9998 2.19027C23.6143 2.19027 29.8091 8.38523 29.8093 15.9999C29.8093 23.6146 23.6145 29.8096 15.9998 29.8097C8.38523 29.8096 2.19042 23.6146 2.19042 15.9998C2.19042 8.38538 8.38523 2.19027 15.9998 2.19027Z" fill="#252525"/>
<path d="M13.8504 22.8528C14.2781 23.2804 14.9715 23.2802 15.3991 22.8528C15.8269 22.425 15.8269 21.7317 15.3989 21.3039L11.1907 17.0958L23.3769 17.0946C23.9817 17.0944 24.4719 16.6043 24.4719 15.9992C24.4718 15.3944 23.9816 14.9043 23.3768 14.9043L11.1901 14.9055L15.3994 10.6965C15.8271 10.2688 15.8271 9.57525 15.3994 9.14771C15.1855 8.93394 14.9052 8.8269 14.6249 8.8269C14.3447 8.8269 14.0645 8.93394 13.8506 9.14756L7.77197 15.226C7.56653 15.4313 7.45117 15.7098 7.45117 16.0003C7.45132 16.2909 7.56667 16.5692 7.77212 16.775L13.8504 22.8528Z" fill="#252525"/>
</g>
<defs>
<clipPath id="clip0_531_1100">
<rect width="32" height="32" fill="white"/>
</clipPath>
</defs>
</svg>
