<svg width="32" height="32" viewBox="0 0 32 32" fill="none" xmlns="http://www.w3.org/2000/svg">
<g clip-path="url(#clip0_531_1095)">
<path d="M16.0002 32C7.17796 32 0.000583649 24.8223 0.000583649 15.9999C0.000583649 7.17766 7.17796 0 16.0002 0C24.8225 0 32 7.17766 32 15.9999C32 24.8223 24.8225 32 16.0002 32ZM16.0002 2.19027C8.38567 2.19027 2.19086 8.38523 2.19071 15.9999C2.19071 23.6146 8.38552 29.8096 16.0002 29.8097C23.6148 29.8096 29.8096 23.6146 29.8096 15.9998C29.8096 8.38538 23.6148 2.19027 16.0002 2.19027Z" fill="#252525"/>
<path d="M18.1496 22.8528C17.7219 23.2804 17.0285 23.2802 16.6009 22.8528C16.1731 22.425 16.1731 21.7317 16.6011 21.3039L20.8093 17.0958L8.62308 17.0946C8.01827 17.0944 7.52809 16.6043 7.52809 15.9992C7.52823 15.3944 8.01842 14.9043 8.62322 14.9043L20.8099 14.9055L16.6006 10.6965C16.1729 10.2688 16.1729 9.57525 16.6006 9.14771C16.8145 8.93394 17.0948 8.8269 17.3751 8.8269C17.6553 8.8269 17.9355 8.93394 18.1494 9.14756L24.228 15.226C24.4335 15.4313 24.5488 15.7098 24.5488 16.0003C24.5487 16.2909 24.4333 16.5692 24.2279 16.775L18.1496 22.8528Z" fill="#252525"/>
</g>
<defs>
<clipPath id="clip0_531_1095">
<rect width="32" height="32" fill="white" transform="matrix(-1 0 0 1 32 0)"/>
</clipPath>
</defs>
</svg>
