<svg width="20" height="21" viewBox="0 0 20 21" fill="none" xmlns="http://www.w3.org/2000/svg">
<path d="M10 0.5C4.48609 0.5 0 4.98609 0 10.5C0 16.0139 4.48609 20.5 10 20.5C15.5139 20.5 20 16.0139 20 10.5C20 4.98609 15.5139 0.5 10 0.5ZM10 19.25C5.17516 19.25 1.25 15.3248 1.25 10.5C1.25 5.67516 5.17516 1.75 10 1.75C14.8248 1.75 18.75 5.67516 18.75 10.5C18.75 15.3248 14.8248 19.25 10 19.25ZM13.5669 10.6831C13.6249 10.7411 13.671 10.81 13.7024 10.8858C13.7339 10.9616 13.7501 11.0429 13.7501 11.125C13.7501 11.2071 13.7339 11.2884 13.7024 11.3642C13.671 11.44 13.6249 11.5089 13.5669 11.5669L10.4419 14.6919C10.3198 14.8139 10.1598 14.875 10 14.875C9.84016 14.875 9.68016 14.8139 9.55813 14.6919L6.43313 11.5669C6.18891 11.3227 6.18891 10.9272 6.43313 10.6831C6.67734 10.4391 7.07281 10.4389 7.31687 10.6831L9.375 12.7413V6.75C9.375 6.40453 9.65484 6.125 10 6.125C10.3452 6.125 10.625 6.40453 10.625 6.75V12.7413L12.6831 10.6831C12.7411 10.6251 12.81 10.579 12.8858 10.5476C12.9616 10.5161 13.0429 10.4999 13.125 10.4999C13.2071 10.4999 13.2884 10.5161 13.3642 10.5476C13.44 10.579 13.5089 10.6251 13.5669 10.6831Z" fill="#2E3133"/>
</svg>
