<svg width="18" height="18" viewBox="0 0 18 18" fill="none" xmlns="http://www.w3.org/2000/svg">
<path d="M10.7834 17.0624H7.21336C4.37836 17.0624 2.15086 15.2774 1.53586 12.5099L1.22838 11.1149C1.01838 10.1549 1.56586 9.11993 2.47336 8.75243L7.67088 6.66743C8.52588 6.32993 9.47086 6.32993 10.3259 6.66743L15.5234 8.75243C16.4384 9.11993 16.9859 10.1549 16.7684 11.1149L16.4609 12.5099C15.8459 15.2774 13.6184 17.0624 10.7834 17.0624ZM8.99837 7.53741C8.69087 7.53741 8.38337 7.59742 8.08337 7.70992L2.88587 9.79492C2.48837 9.95242 2.22587 10.4549 2.31587 10.8674L2.62337 12.2624C3.12587 14.5274 4.88086 15.9299 7.20586 15.9299H10.7759C13.1009 15.9299 14.8559 14.5274 15.3584 12.2624L15.6659 10.8674C15.7559 10.4549 15.4934 9.95242 15.0959 9.79492L9.89838 7.70992C9.61338 7.59742 9.30587 7.53741 8.99837 7.53741Z" fill="#828282"/>
<path d="M9 17.0625C8.6925 17.0625 8.4375 16.8075 8.4375 16.5V7.5C8.4375 7.1925 8.6925 6.9375 9 6.9375C9.3075 6.9375 9.5625 7.1925 9.5625 7.5V16.5C9.5625 16.8075 9.3075 17.0625 9 17.0625Z" fill="#828282"/>
<path d="M14.2497 9.41249C14.1822 9.41249 14.1072 9.3975 14.0397 9.375L9.90719 7.71751C9.32219 7.48501 8.67719 7.48501 8.08469 7.71751L3.95219 9.375C3.77969 9.4425 3.5847 9.42001 3.4272 9.31501C3.2697 9.21001 3.17969 9.03749 3.17969 8.84999V6C3.17969 4.4475 4.43969 3.1875 5.99219 3.1875H11.9922C13.5447 3.1875 14.8047 4.4475 14.8047 6V8.84999C14.8047 9.03749 14.7147 9.21001 14.5572 9.31501C14.4672 9.38251 14.3622 9.41249 14.2497 9.41249ZM8.99969 6.41249C9.44969 6.41249 9.89969 6.49501 10.3272 6.66751L13.6872 8.0175V6C13.6872 5.07 12.9297 4.3125 11.9997 4.3125H5.99969C5.06969 4.3125 4.31219 5.07 4.31219 6V8.0175L7.6722 6.66751C8.0997 6.50251 8.5497 6.41249 8.99969 6.41249Z" fill="#828282"/>
<path d="M10.875 4.3125H7.125C6.8175 4.3125 6.5625 4.0575 6.5625 3.75V2.25C6.5625 1.53 7.155 0.9375 7.875 0.9375H10.125C10.845 0.9375 11.4375 1.53 11.4375 2.25V3.75C11.4375 4.0575 11.1825 4.3125 10.875 4.3125ZM7.6875 3.1875H10.3125V2.25C10.3125 2.145 10.23 2.0625 10.125 2.0625H7.875C7.77 2.0625 7.6875 2.145 7.6875 2.25V3.1875Z" fill="#828282"/>
</svg>
