<svg width="24" height="24" viewBox="0 0 24 24" fill="none" xmlns="http://www.w3.org/2000/svg">
<g clip-path="url(#clip0_935_1252)">
<path d="M21.2499 23.9999H2.75006C1.23305 23.9999 0 22.7669 0 21.2499V4.74988C0 3.23286 1.23305 2 2.75006 2H21.2499C22.767 2 24 3.23281 24 4.74988V21.2499C24 22.7669 22.767 23.9999 21.2499 23.9999ZM2.75006 3.5C2.061 3.5 1.5 4.06086 1.5 4.74988V21.2499C1.5 21.9389 2.06105 22.4999 2.75006 22.4999H21.2499C21.939 22.4999 22.5 21.9389 22.5 21.2499V4.74988C22.5 4.06081 21.939 3.5 21.2499 3.5H2.75006Z" fill="#4F4F4F"/>
<path d="M23.25 9.50006H0.75C0.336 9.50006 0 9.16406 0 8.75006C0 8.33606 0.336 8.00006 0.75 8.00006H23.25C23.664 8.00006 24 8.33606 24 8.75006C24 9.16406 23.664 9.50006 23.25 9.50006ZM5.75006 6C5.33606 6 5.00006 5.664 5.00006 5.25V0.75C5.00006 0.336 5.33606 0 5.75006 0C6.16406 0 6.50006 0.336 6.50006 0.75V5.25C6.50006 5.664 6.16406 6 5.75006 6ZM18.2499 6C17.8359 6 17.4999 5.664 17.4999 5.25V0.75C17.4999 0.336 17.8359 0 18.2499 0C18.6639 0 18.9999 0.336 18.9999 0.75V5.25C18.9999 5.664 18.6639 6 18.2499 6Z" fill="#4F4F4F"/>
</g>
<defs>
<clipPath id="clip0_935_1252">
<rect width="24" height="24" fill="white"/>
</clipPath>
</defs>
</svg>
