<svg width="18" height="18" viewBox="0 0 18 18" fill="none" xmlns="http://www.w3.org/2000/svg">
<g clip-path="url(#clip0_935_1244)">
<path d="M15.9375 18H2.06255C0.924785 18 0 17.0752 0 15.9374V3.56241C0 2.42464 0.924785 1.5 2.06255 1.5H15.9375C17.0752 1.5 18 2.42461 18 3.56241V15.9374C18 17.0752 17.0752 18 15.9375 18ZM2.06255 2.625C1.54575 2.625 1.125 3.04564 1.125 3.56241V15.9374C1.125 16.4542 1.54579 16.875 2.06255 16.875H15.9375C16.4543 16.875 16.875 16.4542 16.875 15.9374V3.56241C16.875 3.04561 16.4542 2.625 15.9375 2.625H2.06255Z" fill="#828282"/>
<path d="M17.4375 7.12505H0.5625C0.252 7.12505 0 6.87305 0 6.56255C0 6.25205 0.252 6.00005 0.5625 6.00005H17.4375C17.748 6.00005 18 6.25205 18 6.56255C18 6.87305 17.748 7.12505 17.4375 7.12505ZM4.31255 4.5C4.00205 4.5 3.75005 4.248 3.75005 3.9375V0.5625C3.75005 0.252 4.00205 0 4.31255 0C4.62305 0 4.87505 0.252 4.87505 0.5625V3.9375C4.87505 4.248 4.62305 4.5 4.31255 4.5ZM13.6875 4.5C13.377 4.5 13.125 4.248 13.125 3.9375V0.5625C13.125 0.252 13.377 0 13.6875 0C13.998 0 14.25 0.252 14.25 0.5625V3.9375C14.25 4.248 13.998 4.5 13.6875 4.5Z" fill="#828282"/>
</g>
<defs>
<clipPath id="clip0_935_1244">
<rect width="18" height="18" fill="white"/>
</clipPath>
</defs>
</svg>
