<svg width="32" height="32" viewBox="0 0 32 32" fill="none" xmlns="http://www.w3.org/2000/svg">
<g clip-path="url(#clip0_659_1110)">
<path d="M26.666 21.3334H29.3327V29.3334H21.3327V26.6667H10.666V29.3334H2.66602V21.3334H5.33268V10.6667H2.66602V2.66675H10.666V5.33341H21.3327V2.66675H29.3327V10.6667H26.666V21.3334ZM23.9993 21.3334V10.6667H21.3327V8.00008H10.666V10.6667H7.99935V21.3334H10.666V24.0001H21.3327V21.3334H23.9993ZM5.33268 5.33341V8.00008H7.99935V5.33341H5.33268ZM5.33268 24.0001V26.6667H7.99935V24.0001H5.33268ZM23.9993 5.33341V8.00008H26.666V5.33341H23.9993ZM23.9993 24.0001V26.6667H26.666V24.0001H23.9993Z" fill="#A1ABB2"/>
</g>
<defs>
<clipPath id="clip0_659_1110">
<rect width="32" height="32" fill="white"/>
</clipPath>
</defs>
</svg>
