<svg width="33" height="32" viewBox="0 0 33 32" fill="none" xmlns="http://www.w3.org/2000/svg">
<g clip-path="url(#clip0_659_1113)">
<path d="M29.6667 14.6666V26.6666H27V22.6666H5.66667V26.6666H3V5.33325H5.66667V18.6666H16.3333V9.33325H24.3333C25.7478 9.33325 27.1044 9.89515 28.1046 10.8953C29.1048 11.8955 29.6667 13.2521 29.6667 14.6666ZM27 18.6666V14.6666C27 13.9593 26.719 13.2811 26.219 12.781C25.7189 12.2809 25.0406 11.9999 24.3333 11.9999H19V18.6666H27ZM11 14.6666C11.3536 14.6666 11.6928 14.5261 11.9428 14.2761C12.1929 14.026 12.3333 13.6869 12.3333 13.3333C12.3333 12.9796 12.1929 12.6405 11.9428 12.3904C11.6928 12.1404 11.3536 11.9999 11 11.9999C10.6464 11.9999 10.3072 12.1404 10.0572 12.3904C9.80714 12.6405 9.66667 12.9796 9.66667 13.3333C9.66667 13.6869 9.80714 14.026 10.0572 14.2761C10.3072 14.5261 10.6464 14.6666 11 14.6666ZM11 17.3333C9.93913 17.3333 8.92172 16.9118 8.17157 16.1617C7.42143 15.4115 7 14.3941 7 13.3333C7 12.2724 7.42143 11.255 8.17157 10.5048C8.92172 9.75468 9.93913 9.33325 11 9.33325C12.0609 9.33325 13.0783 9.75468 13.8284 10.5048C14.5786 11.255 15 12.2724 15 13.3333C15 14.3941 14.5786 15.4115 13.8284 16.1617C13.0783 16.9118 12.0609 17.3333 11 17.3333Z" fill="#A0AAB1"/>
</g>
<defs>
<clipPath id="clip0_659_1113">
<rect width="32" height="32" fill="white" transform="translate(0.333984)"/>
</clipPath>
</defs>
</svg>
