<svg width="33" height="32" viewBox="0 0 33 32" fill="none" xmlns="http://www.w3.org/2000/svg">
<path d="M16.6661 22.6667C21.5487 22.6667 25.8194 24.7667 28.1421 27.9001L25.6861 29.0614C23.7954 26.8214 20.4621 25.3334 16.6661 25.3334C12.8701 25.3334 9.53674 26.8214 7.64607 29.0614L5.19141 27.8987C7.51407 24.7654 11.7834 22.6667 16.6661 22.6667ZM16.6661 2.66675C18.4342 2.66675 20.1299 3.36913 21.3801 4.61937C22.6304 5.86961 23.3327 7.5653 23.3327 9.33341V13.3334C23.3326 15.0514 22.6694 16.703 21.4812 17.9438C20.293 19.1846 18.6717 19.9189 16.9554 19.9934L16.6661 20.0001C14.898 20.0001 13.2023 19.2977 11.952 18.0475C10.7018 16.7972 9.99941 15.1015 9.99941 13.3334V9.33341C9.99951 7.61546 10.6628 5.96387 11.851 4.72305C13.0391 3.48222 14.6604 2.74797 16.3767 2.67341L16.6661 2.66675ZM16.6661 5.33341C15.6458 5.33336 14.6641 5.72318 13.9217 6.42313C13.1794 7.12307 12.7326 8.08022 12.6727 9.09875L12.6661 9.33341V13.3334C12.6651 14.3746 13.0701 15.3752 13.7951 16.1225C14.5201 16.8698 15.5079 17.305 16.5487 17.3355C17.5895 17.3661 18.6011 16.9896 19.3687 16.2861C20.1363 15.5826 20.5993 14.6076 20.6594 13.5681L20.6661 13.3334V9.33341C20.6661 8.27255 20.2446 7.25513 19.4945 6.50499C18.7444 5.75484 17.7269 5.33341 16.6661 5.33341V5.33341Z" fill="#A0AAB1"/>
</svg>
