<svg width="32" height="32" viewBox="0 0 32 32" fill="none" xmlns="http://www.w3.org/2000/svg">
<g clip-path="url(#clip0_659_1119)">
<path d="M27.9993 28H3.99935C3.64573 28 3.30659 27.8595 3.05654 27.6095C2.80649 27.3594 2.66602 27.0203 2.66602 26.6667V16.6493C2.66599 16.4588 2.7068 16.2705 2.78569 16.0971C2.86458 15.9237 2.97972 15.7692 3.12335 15.644L7.99935 11.392V5.33333C7.99935 4.97971 8.13983 4.64057 8.38987 4.39052C8.63992 4.14048 8.97906 4 9.33268 4H27.9993C28.353 4 28.6921 4.14048 28.9422 4.39052C29.1922 4.64057 29.3327 4.97971 29.3327 5.33333V26.6667C29.3327 27.0203 29.1922 27.3594 28.9422 27.6095C28.6921 27.8595 28.353 28 27.9993 28ZM11.9993 25.3333H15.9993V17.256L10.666 12.6053L5.33268 17.256V25.3333H9.33268V20H11.9993V25.3333ZM18.666 25.3333H26.666V6.66667H10.666V9.50267C10.978 9.50267 11.2913 9.612 11.542 9.832L18.2087 15.644C18.3523 15.7692 18.4675 15.9237 18.5463 16.0971C18.6252 16.2705 18.666 16.4588 18.666 16.6493V25.3333ZM21.3327 14.6667H23.9993V17.3333H21.3327V14.6667ZM21.3327 20H23.9993V22.6667H21.3327V20ZM21.3327 9.33333H23.9993V12H21.3327V9.33333ZM15.9993 9.33333H18.666V12H15.9993V9.33333Z" fill="#A0AAB1"/>
</g>
<defs>
<clipPath id="clip0_659_1119">
<rect width="32" height="32" fill="white"/>
</clipPath>
</defs>
</svg>
