<svg width="18" height="18" viewBox="0 0 18 18" fill="none" xmlns="http://www.w3.org/2000/svg">
<path d="M11.4286 17.0625H6.56865C5.15115 17.0625 4.11615 16.47 3.71865 15.45C3.30615 14.385 3.68865 13.065 4.67865 12.1725L8.15865 9L4.67865 5.8275C3.68865 4.935 3.30615 3.615 3.71865 2.55C4.11615 1.5225 5.15115 0.9375 6.56865 0.9375H11.4286C12.8461 0.9375 13.8811 1.53 14.2786 2.55C14.6911 3.615 14.3086 4.935 13.3186 5.8275L9.83865 9L13.3261 12.1725C14.3086 13.065 14.6986 14.385 14.2861 15.45C13.8811 16.47 12.8461 17.0625 11.4286 17.0625ZM8.99865 9.7575L5.43615 12.9975C4.80615 13.575 4.52865 14.415 4.76865 15.0375C4.99365 15.615 5.63115 15.9375 6.56865 15.9375H11.4286C12.3661 15.9375 13.0036 15.6225 13.2286 15.0375C13.4686 14.415 13.1986 13.575 12.5611 12.9975L8.99865 9.7575ZM6.56865 2.0625C5.63115 2.0625 4.99365 2.3775 4.76865 2.9625C4.52865 3.585 4.79865 4.425 5.43615 5.0025L8.99865 8.2425L12.5611 5.0025C13.1911 4.425 13.4686 3.585 13.2286 2.9625C13.0036 2.385 12.3661 2.0625 11.4286 2.0625H6.56865Z" fill="#828282"/>
</svg>
