<svg width="46" height="36" viewBox="0 0 46 36" fill="none" xmlns="http://www.w3.org/2000/svg">
<path opacity="0.1" d="M16.6791 0L18.7971 2.64336C14.4288 5.62238 11.2077 8.58042 9.13381 11.5175C7.10408 14.4545 6.08921 16.993 6.08921 19.1329C6.08921 20.5594 6.61871 21.2727 7.6777 21.2727L8.33957 21.2098C9.39856 20.958 10.2811 20.8322 10.9871 20.8322C12.9285 20.8322 14.5832 21.5245 15.9511 22.9091C17.3631 24.2517 18.0691 25.9301 18.0691 27.9441C18.0691 30.1678 17.3189 32.0769 15.8187 33.6713C14.3626 35.2238 12.6638 36 10.7223 36C7.89832 36 5.40528 34.8671 3.24317 32.6014C1.08106 30.2937 0 27.3147 0 23.6643C0 14.8951 5.55971 7.00699 16.6791 0ZM43.8158 0L46 2.64336C41.6317 5.62238 38.4106 8.58042 36.3367 11.5175C34.307 14.4545 33.2921 16.993 33.2921 19.1329C33.2921 20.5594 33.7995 21.2727 34.8144 21.2727L35.4763 21.2098C36.5794 20.958 37.4619 20.8322 38.1237 20.8322C40.1094 20.8322 41.7861 21.5245 43.154 22.9091C44.5659 24.2517 45.2719 25.9301 45.2719 27.9441C45.2719 30.1678 44.5218 32.0769 43.0216 33.6713C41.5213 35.2238 39.8225 36 37.9252 36C35.0571 36 32.542 34.8671 30.3799 32.6014C28.2619 30.2937 27.2029 27.3147 27.2029 23.6643C27.2029 14.8951 32.7405 7.00699 43.8158 0Z" fill="#293C4D"/>
</svg>
