<svg width="46" height="36" viewBox="0 0 46 36" fill="none" xmlns="http://www.w3.org/2000/svg">
<path opacity="0.1" d="M29.3209 36L27.2029 33.3566C31.5712 30.3776 34.7923 27.4196 36.8662 24.4825C38.8959 21.5455 39.9108 19.007 39.9108 16.8671C39.9108 15.4406 39.3813 14.7273 38.3223 14.7273L37.6604 14.7902C36.6014 15.042 35.7189 15.1678 35.0129 15.1678C33.0715 15.1678 31.4168 14.4755 30.0489 13.0909C28.6369 11.7483 27.9309 10.0699 27.9309 8.05594C27.9309 5.83217 28.6811 3.92308 30.1813 2.32867C31.6374 0.776226 33.3362 0 35.2777 0C38.1017 0 40.5947 1.13287 42.7568 3.3986C44.9189 5.7063 46 8.68532 46 12.3357C46 21.1049 40.4403 28.993 29.3209 36ZM2.18417 36L0 33.3566C4.36834 30.3776 7.58945 27.4196 9.66331 24.4825C11.693 21.5455 12.7079 19.007 12.7079 16.8671C12.7079 15.4406 12.2005 14.7273 11.1856 14.7273L10.5237 14.7902C9.42062 15.042 8.53813 15.1678 7.87626 15.1678C5.89065 15.1678 4.21391 14.4755 2.84604 13.0909C1.43405 11.7483 0.728058 10.0699 0.728058 8.05594C0.728058 5.83217 1.47818 3.92308 2.97842 2.32867C4.47866 0.776226 6.17746 0 8.07482 0C10.9429 0 13.458 1.13287 15.6201 3.3986C17.7381 5.7063 18.7971 8.68532 18.7971 12.3357C18.7971 21.1049 13.2595 28.993 2.18417 36Z" fill="#293C4D"/>
</svg>
