<svg width="80" height="80" viewBox="0 0 80 80" fill="none" xmlns="http://www.w3.org/2000/svg">
<g clip-path="url(#clip0_694_1301)">
<path d="M22.782 55.7653H22.2295L22.2845 56.315L22.7508 60.9775L22.7958 61.4277H23.2483H79.0795V65.0908H19.4808L14.8628 18.9126L14.8177 18.4624H14.3652H0.5V14.7993H18.1327L19.0203 23.6746L19.0653 24.1249H19.5178H28.1323H28.6323V23.6249V10.1368H42.2766H42.7766V9.63684V0.5H69.7533V23.6249V24.1249H70.2533H79.4098L74.1364 55.7653H22.782ZM46.9391 4.16309H46.4391V4.66309V9.63684V10.1368H46.9391H55.7653V23.6249V24.1249H56.2653H65.5908H66.0908V23.6249V4.66309V4.16309H65.5908H46.9391ZM32.7954 13.7993H32.2954V14.2993V23.6249V24.1249H32.7954H51.6022H52.1022V23.6249V14.2993V13.7993H51.6022H32.7954ZM74.989 28.3702L75.0861 27.788H74.4958H19.9841H19.4316L19.4866 28.3377L21.8182 51.6519L21.8632 52.1022H22.3157H70.6097H71.0333L71.1029 51.6844L74.989 28.3702Z" fill="#333333" stroke="white"/>
<path d="M30.4647 79.0795C26.8841 79.0795 23.9707 76.1656 23.9707 72.5848C23.9707 69.0048 26.8841 66.0908 30.4647 66.0908C34.0454 66.0908 36.9594 69.0048 36.9594 72.5848C36.9594 76.1655 34.0454 79.0795 30.4647 79.0795ZM33.2963 72.5848C33.2963 71.0233 32.0263 69.7533 30.4647 69.7533C28.9032 69.7533 27.6332 71.0233 27.6332 72.5848C27.6332 74.1464 28.9032 75.4164 30.4647 75.4164C32.0263 75.4164 33.2963 74.1464 33.2963 72.5848Z" fill="#333333" stroke="white"/>
<path d="M63.2596 79.0795C59.679 79.0795 56.7656 76.1656 56.7656 72.5848C56.7656 69.0048 59.679 66.0908 63.2596 66.0908C66.8403 66.0908 69.7537 69.0048 69.7537 72.5848C69.7537 76.1656 66.8403 79.0795 63.2596 79.0795ZM66.0912 72.5848C66.0912 71.0233 64.8212 69.7533 63.2596 69.7533C61.6981 69.7533 60.4281 71.0233 60.4281 72.5848C60.4281 74.1464 61.6981 75.4164 63.2596 75.4164C64.8212 75.4164 66.0912 74.1464 66.0912 72.5848Z" fill="#333333" stroke="white"/>
</g>
<defs>
<clipPath id="clip0_694_1301">
<rect width="80" height="80" fill="white"/>
</clipPath>
</defs>
</svg>
