<svg width="75" height="75" viewBox="0 0 75 75" fill="none" xmlns="http://www.w3.org/2000/svg">
<g clip-path="url(#clip0_694_1306)">
<path d="M7.11765 66.1765V65.6765H6.61765H0.5V0.5H74.5V65.6765H70.5882H70.0882V66.1765V74.5H58.5045L54.2309 65.9529L54.0927 65.6765H53.7837H23.4221H23.113L22.9748 65.9529L18.7013 74.5H7.11765V66.1765ZM16.2837 71.0882H16.5927L16.7309 70.8119L18.9368 66.4001L19.2986 65.6765H18.4896H11.0294H10.5294V66.1765V70.5882V71.0882H11.0294H16.2837ZM66.1765 71.0882H66.6765V70.5882V66.1765V65.6765H66.1765H58.7163H57.9073L58.2691 66.4001L60.475 70.8119L60.6132 71.0882H60.9222H66.1765ZM70.5882 62.2647H71.0882V61.7647V4.41177V3.91177H70.5882H4.41177H3.91177V4.41177V61.7647V62.2647H4.41177H4.43535H4.46018H4.48624H4.51355H4.54208H4.57184H4.60282H4.63501H4.66842H4.70303H4.73885H4.77585H4.81406H4.85344H4.89401H4.93576H4.97867H5.02276H5.068H5.1144H5.16196H5.21066H5.26051H5.31149H5.3636H5.41684H5.47121H5.52669H5.58329H5.64099H5.6998H5.7597H5.8207H5.88279H5.94596H6.01021H6.07553H6.14193H6.20938H6.2779H6.34747H6.41809H6.48975H6.56246H6.6362H6.71097H6.78676H6.86357H6.9414H7.02024H7.10009H7.18093H7.26277H7.3456H7.42942H7.51422H7.59999H7.68674H7.77445H7.86312H7.95275H8.04333H8.13486H8.22733H8.32074H8.41508H8.51034H8.60653H8.70364H8.80165H8.90058H9.00041H9.10113H9.20275H9.30526H9.40865H9.51292H9.61806H9.72407H9.83094H9.93868H10.0473H10.1567H10.267H10.3781H10.49H10.6028H10.7164H10.8309H10.9461H11.0622H11.179H11.2967H11.4151H11.5343H11.6544H11.7752H11.8968H12.0191H12.1422H12.2661H12.3907H12.5161H12.6423H12.7691H12.8967H13.0251H13.1542H13.2839H13.4144H13.5457H13.6776H13.8102H13.9435H14.0776H14.2123H14.3477H14.4837H14.6205H14.7579H14.8959H15.0347H15.174H15.3141H15.4547H15.596H15.738H15.8806H16.0238H16.1676H16.312H16.457H16.6027H16.7489H16.8958H17.0432H17.1912H17.3398H17.489H17.6387H17.789H17.9399H18.0913H18.2432H18.3958H18.5488H18.7024H18.8565H19.0112H19.1663H19.322H19.4782H19.6349H19.7921H19.9498H20.108H20.2667H20.4259H20.5855H20.7456H20.9062H21.0672H21.2287H21.3907H21.5531H21.7159H21.8792H22.0429H22.2071H22.3716H22.5366H22.702H22.8678H23.034H23.2006H23.3676H23.535H23.7028H23.871H24.0395H24.2084H24.3776H24.5473H24.7172H24.8876H25.0583H25.2293H25.4006H25.5723H25.7443H25.9166H26.0893H26.2622H26.4355H26.609H26.7829H26.957H27.1315H27.3062H27.4812H27.6564H27.832H28.0078H28.1838H28.3601H28.5367H28.7134H28.8905H29.0677H29.2452H29.4229H29.6009H29.779H29.9574H30.1359H30.3147H30.4936H30.6727H30.8521H31.0316H31.2112H31.3911H31.5711H31.7512H31.9316H32.112H32.2926H32.4734H32.6543H32.8353H33.0164H33.1977H33.3791H33.5605H33.7421H33.9238H34.1056H34.2875H34.4695H34.6515H34.8336H35.0158H35.1981H35.3804H35.5628H35.7452H35.9277H36.1102H36.2927H36.4753H36.6579H36.8406H37.0232H37.2059H37.3886H37.5713H37.7539H37.9366H38.1192H38.3019H38.4845H38.6671H38.8496H39.0322H39.2146H39.3971H39.5795H39.7618H39.9441H40.1263H40.3084H40.4904H40.6724H40.8543H41.0361H41.2178H41.3994H41.5809H41.7623H41.9436H42.1247H42.3058H42.4867H42.6674H42.848H43.0285H43.2089H43.389H43.5691H43.7489H43.9286H44.1081H44.2875H44.4666H44.6456H44.8244H45.0029H45.1813H45.3595H45.5374H45.7152H45.8927H46.07H46.247H46.4238H46.6004H46.7767H46.9528H47.1286H47.3042H47.4795H47.6545H47.8293H48.0037H48.1779H48.3518H48.5254H48.6987H48.8717H49.0443H49.2167H49.3887H49.5604H49.7318H49.9029H50.0736H50.244H50.414H50.5836H50.7529H50.9219H51.0905H51.2587H51.4265H51.5939H51.761H51.9276H52.0939H52.2597H52.4252H52.5902H52.7548H52.919H53.0827H53.2461H53.409H53.5714H53.7334H53.895H54.0561H54.2167H54.3769H54.5365H54.6958H54.8545H55.0127H55.1705H55.3278H55.4845H55.6408H55.7965H55.9517H56.1064H56.2606H56.4143H56.5674H56.72H56.872H57.0235H57.1744H57.3247H57.4745H57.6238H57.7724H57.9205H58.068H58.2149H58.3612H58.5069H58.652H58.7965H58.9404H59.0837H59.2263H59.3683H59.5097H59.6505H59.7906H59.93H60.0688H60.2069H60.3444H60.4812H60.6174H60.7528H60.8876H61.0217H61.1551H61.2878H61.4198H61.5511H61.6817H61.8116H61.9407H62.0691H62.1968H62.3238H62.45H62.5755H62.7002H62.8242H62.9474H63.0698H63.1915H63.3124H63.4325H63.5518H63.6703H63.7881H63.905H64.0212H64.1365H64.251H64.3647H64.4776H64.5896H64.7008H64.8112H64.9207H65.0294H65.1372H65.2442H65.3503H65.4556H65.5599H65.6634H65.766H65.8677H65.9686H66.0685H66.1675H66.2656H66.3628H66.4591H66.5545H66.6489H66.7424H66.835H66.9267H67.0173H67.1071H67.1959H67.2837H67.3705H67.4564H67.5413H67.6252H67.7082H67.7901H67.8711H67.951H68.03H68.1079H68.1849H68.2608H68.3356H68.4095H68.4823H68.5541H68.6248H68.6945H68.7632H68.8307H68.8972H68.9627H69.0271H69.0903H69.1526H69.2137H69.2737H69.3326H69.3905H69.4472H69.5028H69.5573H69.6106H69.6629H69.714H69.764H69.8128H69.8605H69.907H69.9524H69.9966H70.0396H70.0815H70.1222H70.1617H70.2001H70.2372H70.2731H70.3079H70.3414H70.3738H70.4049H70.4348H70.4634H70.4909H70.5171H70.542H70.5658H70.5882Z" fill="#333333" stroke="white"/>
<path d="M43.6178 43.8957V44.5079L44.2176 44.3856C48.7294 43.4662 52.2899 39.9057 53.2092 35.3939L53.3314 34.7941H52.7192H48.1501H47.7969L47.6789 35.127C47.0635 36.862 45.6857 38.2398 43.9506 38.8552L43.6178 38.9733V39.3264V43.8957ZM44.2176 21.7908L43.6178 21.6685V22.2807V26.85V27.2032L43.9506 27.3212C45.6857 27.9366 47.0635 29.3144 47.6789 31.0495L47.7969 31.3823H48.1501H52.7192H53.3314L53.2092 30.7825C52.2899 26.2707 48.7294 22.7102 44.2176 21.7908ZM44.6174 33.1072L44.6178 33.0977V33.0882C44.6178 31.5958 43.4045 30.3823 41.9119 30.3823C40.4192 30.3823 39.206 31.5958 39.206 33.0882V33.0977L39.2064 33.1071C39.341 36.6699 44.4822 36.6712 44.6174 33.1072ZM40.206 22.2807V21.6685L39.6061 21.7908C35.0944 22.7104 31.5339 26.2707 30.6145 30.7825L30.4922 31.3823H31.1044H35.6736H36.0268L36.1449 31.0495C36.7603 29.3144 38.1381 27.9366 39.8731 27.3212L40.206 27.2032V26.85V22.2807ZM36.1449 35.127L36.0268 34.7941H35.6736H31.1044H30.4922L30.6145 35.3939C31.5339 39.9057 35.0944 43.4662 39.6062 44.3856L40.206 44.5079V43.8957V39.3264V38.9733L39.8731 38.8552C38.1381 38.2398 36.7603 36.862 36.1449 35.127ZM56.8531 33.0976C56.8479 41.3315 50.1469 48.0294 41.9119 48.0294C33.6769 48.0294 26.9758 41.3314 26.9707 33.0978C27.7283 13.3001 56.0925 13.2955 56.8531 33.0976Z" fill="#333333" stroke="white"/>
<path d="M13.236 18.147H13.736V17.647V9.32349H65.6772V56.8529H13.736V48.5294V48.0294H13.236H9.32422V35.7941H13.236H13.736V35.2941V30.8823V30.3823H13.236H9.32422V18.147H13.236ZM17.6477 12.7353H17.1477V13.2353V17.647V18.147H17.6477H21.5595V30.3823H17.6477H17.1477V30.8823V35.2941V35.7941H17.6477H21.5595V48.0294H17.6477H17.1477V48.5294V52.9411V53.4411H17.6477H61.7654H62.2654V52.9411V13.2353V12.7353H61.7654H17.6477ZM13.236 21.5588H12.736V22.0588V26.4705V26.9705H13.236H17.6477H18.1477V26.4705V22.0588V21.5588H17.6477H13.236ZM13.236 39.2058H12.736V39.7058V44.1176V44.6176H13.236H17.6477H18.1477V44.1176V39.7058V39.2058H17.6477H13.236Z" fill="#333333" stroke="white"/>
</g>
<defs>
<clipPath id="clip0_694_1306">
<rect width="75" height="75" fill="white"/>
</clipPath>
</defs>
</svg>
