<svg width="80" height="80" viewBox="0 0 80 80" fill="none" xmlns="http://www.w3.org/2000/svg">
<g clip-path="url(#clip0_694_1312)">
<path d="M60.7882 65.245L60.7882 65.2451C62.3503 65.98 63.7524 66.6373 66.6662 66.6373C69.58 66.6373 70.9819 65.98 72.544 65.2451L72.3312 64.7929L72.544 65.245L72.5502 65.2421C74.2267 64.4531 76.0756 63.583 79.5 63.5056V67.2126C76.9203 67.2837 75.592 67.9065 74.122 68.5981L74.3349 69.0505L74.122 68.5981L74.1156 68.6011C72.3593 69.4276 70.414 70.3431 66.6662 70.3431C62.9184 70.3431 60.9729 69.4276 59.2165 68.6011L59.2101 68.5981L59.21 68.5981C57.6479 67.8631 56.2459 67.2059 53.3321 67.2059C50.4186 67.2059 49.0165 67.863 47.4545 68.5981L47.4481 68.6011C45.6919 69.4276 43.7466 70.3431 39.9989 70.3431C36.2514 70.3431 34.3061 69.4276 32.5498 68.6011L32.5434 68.5981L32.5434 68.5981C30.9815 67.8631 29.5796 67.2059 26.666 67.2059C23.7525 67.2059 22.3505 67.863 20.7885 68.5981L20.7819 68.6012C19.0257 69.4277 17.0805 70.3431 13.333 70.3431C9.58536 70.3431 7.64004 69.4276 5.88378 68.6011L5.87738 68.5981L5.87735 68.5981C4.40752 67.9065 3.07942 67.2837 0.5 67.2126V63.5056C3.9241 63.583 5.77265 64.4531 7.44893 65.242L7.45531 65.245L7.45536 65.245C9.0173 65.98 10.4192 66.6373 13.3329 66.6373C16.2465 66.6373 17.6484 65.9802 19.2104 65.245L19.2168 65.242C20.9731 64.4155 22.9184 63.5 26.666 63.5C30.4139 63.5 32.3592 64.4156 34.1154 65.2421L34.1215 65.245L34.1216 65.245C35.6835 65.98 37.0854 66.6373 39.9989 66.6373C42.9126 66.6373 44.3146 65.9802 45.8766 65.245L45.883 65.242C47.6392 64.4155 49.5846 63.5 53.3322 63.5C57.0802 63.5 59.0257 64.4156 60.782 65.2421L60.7882 65.245Z" fill="#333333" stroke="white"/>
<path d="M60.7882 75.4411L60.7882 75.4411C62.3503 76.176 63.7524 76.8333 66.6662 76.8333C69.58 76.8333 70.9819 76.176 72.544 75.4411L72.3312 74.9889L72.544 75.4411L72.5502 75.4382C74.2267 74.6492 76.0756 73.7791 79.5 73.7016V77.4087C76.9203 77.4797 75.592 78.1025 74.122 78.7941L74.3349 79.2466L74.122 78.7941L74.1156 78.7972C72.3593 79.6237 70.414 80.5392 66.6662 80.5392C62.9184 80.5392 60.9729 79.6237 59.2165 78.7972L59.2101 78.7941L59.21 78.7941C57.6479 78.0592 56.2459 77.4019 53.3321 77.4019C50.4186 77.4019 49.0165 78.059 47.4545 78.7941L47.4481 78.7972C45.6919 79.6237 43.7466 80.5392 39.9989 80.5392C36.2514 80.5392 34.3061 79.6237 32.5498 78.7972L32.5434 78.7941L32.5434 78.7941C30.9815 78.0592 29.5796 77.4019 26.666 77.4019C23.7525 77.4019 22.3505 78.059 20.7885 78.7941L20.7819 78.7973C19.0257 79.6238 17.0805 80.5392 13.333 80.5392C9.58536 80.5392 7.64004 79.6237 5.88378 78.7972L5.87738 78.7941L5.87735 78.7941C4.40752 78.1025 3.07942 77.4797 0.5 77.4087V73.7016C3.9241 73.7791 5.77265 74.6491 7.44893 75.4381L7.45531 75.4411L7.45536 75.4411C9.0173 76.176 10.4192 76.8333 13.3329 76.8333C16.2465 76.8333 17.6484 76.1762 19.2104 75.4411L19.2168 75.4381C20.9731 74.6115 22.9184 73.696 26.666 73.696C30.4139 73.696 32.3592 74.6116 34.1154 75.4382L34.1215 75.4411L34.1216 75.4411C35.6835 76.176 37.0854 76.8333 39.9989 76.8333C42.9126 76.8333 44.3146 76.1762 45.8766 75.4411L45.883 75.4381C47.6392 74.6115 49.5846 73.696 53.3322 73.696C57.0802 73.696 59.0257 74.6116 60.782 75.4382L60.7882 75.4411Z" fill="#333333" stroke="white"/>
<path d="M42.3529 38.9706H0.5V35.2647H42.3529H42.8529V34.7647V31.2353C42.8529 26.9706 46.3234 23.5 50.5882 23.5C54.8531 23.5 58.3235 26.9706 58.3235 31.2353V34.7647V35.2647H58.8235H63.5294H64.0294V34.7647V31.2353C64.0294 26.9706 67.4998 23.5 71.7647 23.5C76.0296 23.5 79.5 26.9706 79.5 31.2353V38.9706H68.2353H67.7353V39.4706V56.6483V57.2032L68.2872 57.1456C70.1698 56.9493 71.3201 56.4093 72.544 55.8333L72.5502 55.8304C74.2267 55.0414 76.0756 54.1713 79.5 54.0938V57.8009C76.9203 57.8719 75.592 58.4947 74.122 59.1863L74.3349 59.6387L74.122 59.1863L74.1156 59.1894C72.3593 60.0159 70.414 60.9314 66.6662 60.9314C62.9184 60.9314 60.9729 60.0159 59.2165 59.1894L59.2101 59.1863L59.21 59.1863C57.6479 58.4514 56.2459 57.7941 53.3321 57.7941C50.4186 57.7941 49.0165 58.4512 47.4545 59.1863L47.4481 59.1894C45.6919 60.0159 43.7466 60.9314 39.9989 60.9314C36.2514 60.9314 34.3061 60.0159 32.5498 59.1894L32.5434 59.1863L32.5434 59.1863C30.9815 58.4514 29.5796 57.7941 26.666 57.7941C23.7525 57.7941 22.3505 58.4512 20.7885 59.1863L20.7819 59.1895C19.0257 60.016 17.0805 60.9314 13.333 60.9314C9.58537 60.9314 7.64005 60.0159 5.88379 59.1894L5.87738 59.1863L5.87735 59.1863C4.40752 58.4947 3.07942 57.8719 0.5 57.8009V54.0938C3.9241 54.1713 5.77264 55.0413 7.44893 55.8303L7.45531 55.8333L7.45536 55.8333C9.0173 56.5682 10.4192 57.2255 13.3329 57.2255C16.2465 57.2255 17.6484 56.5684 19.2104 55.8333L19.2168 55.8302C20.9731 55.0037 22.9184 54.0882 26.666 54.0882C30.4139 54.0882 32.3592 55.0038 34.1153 55.8304L34.1215 55.8333L34.1216 55.8333C35.6835 56.5682 37.0854 57.2255 39.9989 57.2255C40.9508 57.2255 41.7431 57.1547 42.4397 57.032L42.8529 56.9592V56.5396V39.4706V38.9706H42.3529ZM75.2941 35.2647H75.7941V34.7647V31.2353C75.7941 29.0131 73.9871 27.2059 71.7647 27.2059C69.5424 27.2059 67.7353 29.0131 67.7353 31.2353V34.7647V35.2647H68.2353H75.2941ZM54.1176 35.2647H54.6176V34.7647V31.2353C54.6176 29.0131 52.8106 27.2059 50.5882 27.2059C48.3659 27.2059 46.5588 29.0131 46.5588 31.2353V34.7647V35.2647H47.0588H54.1176ZM64.0294 39.4706V38.9706H63.5294H47.0588H46.5588V39.4706V44.1765V44.6765H47.0588H63.5294H64.0294V44.1765V39.4706ZM46.5588 54.752V55.5008L47.2504 55.2138C48.7018 54.6117 50.5012 54.0882 53.3322 54.0882C57.0804 54.0882 59.0259 55.0039 60.7821 55.8305L60.788 55.8333L61.0009 55.3809L60.788 55.8333C61.6025 56.2166 62.3998 56.5908 63.403 56.853L64.0294 57.0167V56.3693V48.8824V48.3824H63.5294H47.0588H46.5588V48.8824V54.752Z" fill="#333333" stroke="white"/>
</g>
<defs>
<clipPath id="clip0_694_1312">
<rect width="80" height="80" fill="white"/>
</clipPath>
</defs>
</svg>
