<svg width="80" height="80" viewBox="0 0 80 80" fill="none" xmlns="http://www.w3.org/2000/svg">
<path d="M70.0169 23.5932V24.1932H70.6169H79.3998L79.4 55.807H70.6171H70.0171V56.407V60.4984H57.1463V47.0353V46.4353H56.5463H23.4535H22.8535V47.0353V60.4984H9.98295V56.407V55.807H9.38295H0.6V24.193H9.38295H9.98295V23.593V19.5016H22.8535V32.9647V33.5647H23.4535H56.5461H57.1461V32.9647V19.5016H70.0169V23.5932ZM4.08765 51.7194V52.3194H4.68765H8.78279H9.38279H9.38295V51.7194H9.98279V28.2808V27.6808H9.38279H4.68765H4.08765V28.2808V51.7194ZM13.4706 56.4108V57.0108H14.0706H18.1657H18.7657H18.7659V56.4108H19.3657V23.5894V22.9894H18.7657H14.0706H13.4706V23.5894V56.4108ZM56.5463 42.9477H57.1463V42.3477V37.6524V37.0524H56.5463H23.4535H22.8535V37.6524V42.3477V42.9477H23.4535H56.5463ZM65.9292 57.0108H66.5292V56.4108V23.5894V22.9894H65.9292H61.2339H60.6339V23.5894V56.4108V57.0108H61.2339H65.9292ZM75.3122 52.3194H75.9122V51.7194V28.2808V27.6808H75.3122H70.6171H70.0171V28.2808V51.7194V52.3194H70.6171H75.3122Z" fill="#333333" stroke="white" stroke-width="1.2"/>
</svg>
