<svg width="80" height="80" viewBox="0 0 80 80" fill="none" xmlns="http://www.w3.org/2000/svg">
<g clip-path="url(#clip0_694_1227)">
<path d="M14.8828 50.559L43.3427 36.3318L38.5047 28.2679L23.6366 35.7021L19.4434 27.3158L42.0753 15.9999L63.9142 52.396" stroke="#333333" stroke-width="3" stroke-miterlimit="10"/>
<path d="M73.1035 33.8528C73.1035 37.7361 70.3723 40.884 66.0723 40.884C62.189 40.884 59.041 37.7361 59.041 33.8528C59.041 29.9695 62.189 26.8215 66.0723 26.8215C69.9555 26.8215 73.1035 29.9695 73.1035 33.8528Z" stroke="#333333" stroke-width="3" stroke-miterlimit="10"/>
<path d="M0.800781 54.617C2.33375 54.2886 3.89734 53.6728 5.25234 52.7695C9.51 49.9309 15.057 49.9309 19.3148 52.7695C23.5725 55.6081 29.1195 55.6081 33.3773 52.7695C37.635 49.9309 43.182 49.9309 47.4398 52.7695C51.6975 55.6081 57.2445 55.6081 61.5023 52.7695C65.76 49.9309 71.4633 49.9309 75.7211 52.7695C76.9977 53.6206 78.3119 54.2165 79.7508 54.5571" stroke="#333333" stroke-width="3" stroke-miterlimit="10"/>
<path d="M0.800781 63.992C2.33375 63.6636 3.89734 63.0478 5.25234 62.1445C9.51 59.3059 15.057 59.3059 19.3148 62.1445C23.5725 64.9831 29.1195 64.9831 33.3773 62.1445C37.635 59.3059 43.182 59.3059 47.4398 62.1445C51.6975 64.9831 57.2445 64.9831 61.5023 62.1445C65.76 59.3059 71.4633 59.3059 75.7211 62.1445C76.9977 62.9956 78.3119 63.5915 79.7508 63.9321" stroke="#333333" stroke-width="3" stroke-miterlimit="10"/>
</g>
<defs>
<clipPath id="clip0_694_1227">
<rect width="80" height="80" fill="white"/>
</clipPath>
</defs>
</svg>
