<svg width="80" height="80" viewBox="0 0 80 80" fill="none" xmlns="http://www.w3.org/2000/svg">
<path d="M77.6562 23.5938C77.6562 11.9439 69.2617 2.34375 58.9062 2.34375C48.5508 2.34375 40.1562 11.9439 40.1562 23.5938C40.1562 33.4114 46.1458 41.7453 54.2188 44.098V58.9062H63.5938V44.098C71.6667 41.7453 77.6562 33.4114 77.6562 23.5938Z" stroke="#333333" stroke-width="3" stroke-miterlimit="10"/>
<path d="M74.4695 35.4688H43.3438" stroke="#333333" stroke-width="3" stroke-miterlimit="10"/>
<path d="M11.5417 67.2277C2.15495 60.328 -0.482708 47.9708 5.65042 39.6269C11.7837 31.283 24.3648 30.1125 33.7517 37.0123C41.6621 42.8269 44.7037 52.4963 41.8181 60.3944L53.7498 69.1648L48.1973 76.7188L36.2656 67.9483C29.5885 73.0595 19.4521 73.0423 11.5417 67.2277Z" stroke="#333333" stroke-width="3" stroke-miterlimit="10"/>
<path d="M22.8711 71.6003L41.3058 46.5208" stroke="#333333" stroke-width="3" stroke-miterlimit="10"/>
<path d="M30.625 14.2188C30.625 18.102 27.477 21.25 23.5938 21.25C19.7105 21.25 16.5625 18.102 16.5625 14.2188C16.5625 10.3355 19.7105 7.1875 23.5938 7.1875C27.477 7.1875 30.625 10.3355 30.625 14.2188Z" stroke="#333333" stroke-width="3" stroke-miterlimit="10"/>
</svg>
