<svg width="80" height="80" viewBox="0 0 80 80" fill="none" xmlns="http://www.w3.org/2000/svg">
<path d="M13.7137 38.2588L13.7141 38.2584C28.2014 23.7552 51.7971 23.7547 66.285 38.2569C67.5671 39.5533 67.5616 41.6356 66.2869 42.9104C65.6453 43.5519 64.8063 43.8764 63.9692 43.8764C63.1322 43.8764 62.2932 43.5519 61.6516 42.9104C49.7187 30.9775 30.3009 30.9768 18.3672 42.9085C17.0714 44.19 14.9903 44.1851 13.7154 42.9121C12.4335 41.6157 12.439 39.5335 13.7137 38.2588Z" fill="#333333" stroke="white" stroke-width="2"/>
<path d="M54.6939 49.8494L54.6952 49.8508C55.9724 51.128 55.9724 53.2089 54.6952 54.486C54.0537 55.1276 53.2146 55.4521 52.3776 55.4521C51.5408 55.4521 50.7019 55.1278 50.0605 54.4865C44.5202 48.9294 35.4838 48.9288 29.9428 54.4847C28.647 55.7657 26.5663 55.7606 25.2916 54.4878C24.0097 53.1914 24.0152 51.1091 25.2899 49.8344C33.4016 41.7228 46.5994 41.7238 54.6939 49.8494Z" fill="#333333" stroke="white" stroke-width="2"/>
<path d="M44.7052 64.5289C44.7052 67.128 42.5982 69.235 39.9991 69.235C37.4 69.235 35.293 67.128 35.293 64.5289C35.293 61.9298 37.4 59.8228 39.9991 59.8228C42.5982 59.8228 44.7052 61.9298 44.7052 64.5289Z" fill="#333333" stroke="white" stroke-width="2"/>
<path d="M1.9596 31.14C0.677673 29.8437 0.683171 27.7614 1.95787 26.4867C22.9359 5.525 57.061 5.52428 78.04 26.4846C79.3223 27.7809 79.317 29.8635 78.0421 31.1383C77.4006 31.7799 76.5615 32.1044 75.7245 32.1044C74.8875 32.1044 74.0484 31.7799 73.4069 31.1383C54.9833 12.7147 25.0198 12.7136 6.61128 31.1365C5.31552 32.4179 3.23448 32.413 1.9596 31.14Z" fill="#333333" stroke="white" stroke-width="2"/>
</svg>
