<svg width="80" height="80" viewBox="0 0 80 80" fill="none" xmlns="http://www.w3.org/2000/svg">
<path d="M74.9125 56.4844V56.8844H75.3125H79.6V60.7719H74.9542H74.6154L74.5597 61.1061L73.0529 70.1469H6.94713L5.44034 61.1061L5.38463 60.7719H5.04578H0.4V56.8844H4.6875H5.0875V56.4844V54.1406C5.0875 44.8144 8.71848 36.0485 15.3132 29.4536C21.3586 23.4083 29.2292 19.8561 37.6822 19.3057L38.0563 19.2814V18.9066V14.1406V13.7406H37.6562H33.3688V9.85313H46.6312V13.7406H42.3438H41.9437V14.1406V18.9066V19.2814L42.3178 19.3057C50.7708 19.856 58.6414 23.4081 64.6868 29.4536C71.2815 36.0485 74.9125 44.8144 74.9125 54.1406V56.4844ZM69.4208 66.2594H69.7596L69.8153 65.9251L70.5966 61.2376L70.6742 60.7719H70.202H9.79797H9.32578L9.40341 61.2376L10.1847 65.9251L10.2404 66.2594H10.5792H69.4208ZM70.625 56.8844H71.025V56.4844V54.1406C71.025 37.033 57.1076 23.1156 40 23.1156C22.8924 23.1156 8.975 37.033 8.975 54.1406V56.4844V56.8844H9.375H70.625Z" fill="#333333" stroke="white" stroke-width="0.8"/>
</svg>
